<?xml version="1.0" encoding="UTF-8" standalone="no"?>
<svg
   xmlns:dc="http://purl.org/dc/elements/1.1/"
   xmlns:cc="http://creativecommons.org/ns#"
   xmlns:rdf="http://www.w3.org/1999/02/22-rdf-syntax-ns#"
   xmlns:svg="http://www.w3.org/2000/svg"
   xmlns="http://www.w3.org/2000/svg"
   viewBox="0 0 272 300"
   height="300"
   width="272"
   id="svg3767"
   version="1.1">
  <metadata
     id="metadata3773">
    <rdf:RDF>
      <cc:Work
         rdf:about="">
        <dc:format>image/svg+xml</dc:format>
        <dc:type
           rdf:resource="http://purl.org/dc/dcmitype/StillImage" />
        <dc:title></dc:title>
      </cc:Work>
    </rdf:RDF>
  </metadata>
  <defs
     id="defs3771" />
  <g
     transform="matrix(1.0776201,0,0,0.98994636,119.61894,-364.68805)"
     id="g3777">
    <path
       id="path3797"
       d="M 482.33487,100.23681 V -49.763191 h 136 136 v 150.000001 150 h -136 -136 z m 72.96426,136.4473 c 11.80248,-2.2389 21.32301,-6.02238 50.03574,-19.88435 37.27651,-17.99639 47.33314,-21.42757 75,-25.58892 17.93256,-2.69722 28.01833,-5.80291 35.86812,-11.0448 16.10977,-10.75769 22.71413,-30.3371 16.5593,-49.09196 -1.7731,-5.40295 -3.1211,-6.22763 -6.94052,-4.2461 -5.6173,2.9143 -13.74845,4.66164 -19.11511,4.10775 -7.47049,-0.77102 -16.62762,-5.16793 -21.28445,-10.21999 -5.04611,-5.47439 -6.96911,-9.28134 -8.51013,-16.84749 l -1.2488,-6.131441 -4.41421,-0.67588 c -7.34872,-1.12519 -17.41532,-0.923 -18.7142,0.37588 -0.66,0.66 -1.2,2.44312 -1.2,3.962491 0,5.84331 -4.15055,14.14806 -9.98874,19.98625 -4.67708,4.67708 -6.84421,6.02817 -12.44271,7.75737 -3.72857,1.15164 -8.96411,2.09389 -11.63452,2.09389 h -4.8553 l -5.46891,7.39506 c -11.07914,14.98122 -26.14875,27.99967 -41.8432,36.1478 -13.8421,7.18644 -15.82748,7.70024 -20.4247,5.2858 -6.1997,-3.25607 -14.14697,-11.72884 -17.64251,-18.80909 -3.02222,-6.12154 -3.20277,-7.11839 -3.26012,-18 l -0.0607,-11.51957 -3.43929,-1.19356 c -6.23836,-2.16493 -6.61547,-1.91125 -11.44075,7.69647 -10.36292,20.63381 -13.73301,32.81631 -13.69257,49.49709 0.0551,22.72037 9.10372,37.8209 27.55228,45.97973 10.34423,4.57471 19.66291,5.42283 32.60601,2.96757 z m -16.1326,-119.7172 c 8.4443,-5.58817 12.32352,-16.6698 9.17501,-26.209901 -4.25271,-12.88582 -20.62525,-19.05267 -32.33426,-12.17896 -15.19742,8.92156 -15.18845,30.014341 0.0165,38.931191 4.26313,2.50009 5.61851,2.78629 11.90124,2.51312 5.74014,-0.24958 7.88066,-0.83137 11.24146,-3.05545 z m 87.45046,1.92144 c 10.75047,-4.50502 16.57355,-16.26847 13.33898,-26.946631 -2.05944,-6.79875 -5.75104,-11.13213 -12.15086,-14.26327 -4.69894,-2.29898 -6.38811,-2.62671 -11.05546,-2.145 -18.0803,1.86605 -26.95088,21.69054 -16.0727,35.920181 5.97818,7.81999 17.28639,11.06105 25.94004,7.43472 z m 91,0 c 10.75047,-4.50502 16.57355,-16.26847 13.33898,-26.946631 -2.05944,-6.79875 -5.75104,-11.13213 -12.15086,-14.26327 -4.69894,-2.29898 -6.38811,-2.62671 -11.05546,-2.145 -18.0803,1.86605 -26.95088,21.69054 -16.0727,35.920181 5.97818,7.81999 17.28639,11.06105 25.94004,7.43472 z M 646.79884,33.486809 c 8.78018,-17.7375 16.21674,-32.2499997 16.52568,-32.2499997 0.30894,0 7.70752,14.6249997 16.44129,32.4999997 13.5296,27.69041 16.19828,32.5 18.03319,32.5 1.18449,0 2.85882,-0.5625 3.72075,-1.25 1.96703,-1.56897 35.19618,-99.314582 34.43599,-101.295606 -0.85571,-2.229956 -144.40138,-2.189959 -145.25727,0.04047 -0.81195,2.115885 32.3716,99.702886 34.44369,101.292876 4.20403,3.22591 5.07959,1.95086 21.65668,-31.537744 z"
       style="fill:#fefefd" />
    <path
       id="path3779"
       d="m -72.086266,660.00343 c -15.57421,-4.19433 -26.45696,-14.21735 -30.591574,-28.17489 -5.16286,-17.42866 -2.32172,-35.83737 9.407834,-60.95658 3.81699,-8.1742 5.27645,-10.40382 6.50223,-9.93345 0.8693,0.33358 1.88998,0.60651 2.26818,0.60651 0.37821,0 0.51445,3.42981 0.30276,7.6218 -0.89878,17.79852 8.8573,34.66853 24.24949,41.93167 l 4.90347,2.31381 6.59653,-2.48122 c 19.56943,-7.36088 41.2863599,-24.08713 53.5965299,-41.27972 4.36127,-6.09103 5.4088901,-6.99096 8.2007801,-7.04472 18.09292,-0.34833 32.66723,-11.47923 36.98704,-28.24827 l 1.75516,-6.81335 h 8.19061 8.19061 l 0.65797,3.89444 c 1.05633,6.25237 6.01847,15.62317 10.65634,20.12407 8.58504,8.33149 21.391436,12.25098 32.528306,9.95553 3.20825,-0.66127 7.08391,-1.84433 8.61256,-2.62904 1.52865,-0.7847 3.18587,-1.1755 3.68272,-0.86843 1.69033,1.04468 3.28696,11.95344 2.68813,18.36623 -1.41267,15.12792 -11.38854,27.07025 -27.832006,33.31827 -2.84436,1.08078 -14.38489,3.51342 -25.64563,5.40587 -26.65619,4.47979 -38.01681,8.3315 -69.5800201,23.59047 -13.76427,6.65422 -29.3181799,13.8 -34.5642599,15.87952 -16.65872,6.60343 -30.63714,8.41801 -41.76376,5.42148 z m -10.60936,-116.91706 c -9.61087,-3.42675 -15.10875,-14.91726 -11.59157,-24.22625 2.41208,-6.38409 10.93766,-12.2488 17.87066,-12.29314 4.77699,-0.0306 11.61468,3.52013 14.78617,7.67818 3.14481,4.12305 4.30421,13.41191 2.28306,18.29138 -1.71968,4.15169 -8.1177,9.66872 -12.68273,10.93636 -4.82278,1.33921 -5.93893,1.29876 -10.66559,-0.38653 z m 87.6594999,-2.06891 c -5.73625002,-3.43827 -9.82406,-11.59006 -8.90046,-17.74906 2.26545,-15.10708 19.6485101,-21.98557 30.5870101,-12.1033 9.86646,8.91376 8.69281,23.37264 -2.42613,29.88877 -5.86346,3.43622 -13.49089,3.4218 -19.2604201,-0.0364 z m 91.0000101,0 c -5.73625,-3.43827 -9.82406,-11.59006 -8.90046,-17.74906 2.26545,-15.10708 19.648506,-21.98557 30.587006,-12.1033 9.86646,8.91376 8.69281,23.37264 -2.42613,29.88877 -5.86346,3.43622 -13.49089,3.4218 -19.260416,-0.0364 z m -73.05134,-53.22244 c -0.37062,-0.9625 -7.7068,-22.45 -16.3026201,-47.75 l -15.62876,-46 34.3340101,-0.26296 c 18.88371,-0.14463 49.76476,-0.14463 68.62458,0 l 34.290566,0.26296 -16.13669,47.4487 c -8.87517,26.09679 -16.543426,47.57189 -17.040556,47.72243 -0.49713,0.15055 -8.20837,-14.67637 -17.13609,-32.94871 -12.92425,-26.45205 -16.62334,-33.22242 -18.15152,-33.22242 -1.52137,0 -5.35853,6.89408 -18.50655,33.25 -9.12298,18.2875 -16.83142,33.25 -17.12987,33.25 -0.29845,0 -0.84587,-0.7875 -1.2165,-1.75 z"
       style="fill:#c43b12" />
  </g>
</svg>
